# xmcd
#
# Track frame offsets:
#	150
#	16075
#	28950
#	37025
#	47950
#	62987
#	93500
#	105775
#	118812
#	136687
#	147775
#	158425
#	173487
#	189400
#	205900
#
# Disc length: 2998 seconds
#
# Revision: 0
# Processed by: cddbd v1.5.2PL0 Copyright (c) Steve Scherf et al.
# Submitted via: audiograbber 1.83.01
#
DISCID=c20bb40f
DTITLE=Various Artist - Cookin' With The Blues
DYEAR=1992
DGENRE=Blues
TTITLE0=John Lee Hooker - Black Man Blues
TTITLE1=Screamin' Jay Hawkins - This Is All
TTITLE2=Big Joe Williams - Watergate Blues
TTITLE3=Junior Wells - You Sure Look Good To Me
TTITLE4=Peter Green - Post Modern Blues
TTITLE5=Luther Allison - You Upset Me Baby
TTITLE6=The Aces - Take A Little Walk With Me
TTITLE7=Earl Hooker - Hold On
TTITLE8=Matt "Guitar" Murphy - Taking Off
TTITLE9=Little Walter - Blue Midnight
TTITLE10=Paul Lamb And The Blues Burglars - Spaced Out
TTITLE11=Issac Scott - Help
TTITLE12=Buddy Reed and The Th'rip It Ups - Rialto Rock
TTITLE13=Brewers Droop and Mark Knopfler - My Old Lady
TTITLE14=Sunnyland Slim - Mellow Stella
EXTD=
EXTT0=
EXTT1=
EXTT2=
EXTT3=
EXTT4=
EXTT5=
EXTT6=
EXTT7=
EXTT8=
EXTT9=
EXTT10=
EXTT11=
EXTT12=
EXTT13=
EXTT14=
PLAYORDER=
